{"title":"Asterix Conquers America RUS VHSRip","uid":6148177,"size":2904129821,"categoryP":"video","categoryS":"movies","magnet":"?xt=urn:btih:2f5af312d2e1d7bc13e9a9e7c43f13321647923e&amp;dn=Asterix+Conquers+America+RUS+VHSRip&amp;tr=udp%3A%2F%2Ftracker.openbittorrent.com%3A80&amp;tr=udp%3A%2F%2Fopen.demonii.com%3A1337&amp;tr=udp%3A%2F%2Ftracker.coppersurfer.tk%3A6969&amp;tr=udp%3A%2F%2Fexodus.desync.com%3A6969","seeders":0,"leechers":1,"uploader":"MEDVEDxEvilPunk","files":-1,"time":1296769561,"description":"975-94392779.VRO\nCreated: 30.01.2011\nCRC32: 9DD916C7\nMD5: CDE1318716FF58A6215EA5079D47C6FF\nSHA-1: 485998E42D1268225A2DC8EF0B5A637F10E06C72\n\nVHS Recorder Model: SAMSUNG VK-30R/BWX\nVHS Recorder S/N: 62MF100720\nRecording Device Model: PANASONIC DVD VIDEO RECORDER DMR-E55\nRecording Device S/N: VV4EA002574\nRecording Device Quality Settings: SP\nMedium Used: DVD-RAM 4.7 GB Single Sided Non-Cartridge Disc\nTape Info: C62N7BB E-90\n\nGeneral\nComplete name                    : Y:\\Core\\Video\\Restored from VHS Tapes\\975-94392779.VRO\nFormat                           : MPEG-PS\nFile size                        : 2.70 GiB\nDuration                         : 1h 22mn\nOverall bit rate                 : 4 674 Kbps\n\nVideo\nID                               : 224 (0xE0)\nFormat                           : MPEG Video\nFormat version                   : Version 2\nFormat profile                   : Main@Main\nFormat settings, BVOP            : Yes\nFormat settings, Matrix          : Default\nFormat settings, GOP             : M=3, N=12\nDuration                         : 1h 22mn\nBit rate mode                    : Variable\nBit rate                         : 4 325 Kbps\nNominal bit rate                 : 9 579 Kbps\nWidth                            : 704 pixels\nHeight                           : 576 pixels\nDisplay aspect ratio             : 4:3\nFrame rate                       : 25.000 fps\nStandard                         : PAL\nColor space                      : YUV\nChroma subsampling               : 4:2:0\nBit depth                        : 8 bits\nScan type                        : Interlaced\nScan order                       : Top Field First\nBits/(Pixel*Frame)               : 0.427\nStream size                      : 2.50 GiB (93%)\n\nAudio\nID                               : 128 (0x80)\nFormat                           : AC-3\nFormat/Info                      : Audio Coding 3\nMode extension                   : CM (complete main)\nDuration                         : 1h 22mn\nBit rate mode                    : Constant\nBit rate                         : 256 Kbps\nChannel(s)                       : 2 channels\nChannel positions                : Front: L R\nSampling rate                    : 48.0 KHz\nBit depth                        : 16 bits\nStream size                      : 152 MiB (5%)\n","torrent":{"xt":"urn:btih:2f5af312d2e1d7bc13e9a9e7c43f13321647923e","amp;dn":"Asterix+Conquers+America+RUS+VHSRip","amp;tr":["udp%3A%2F%2Ftracker.openbittorrent.com%3A80","udp%3A%2F%2Fopen.demonii.com%3A1337","udp%3A%2F%2Ftracker.coppersurfer.tk%3A6969","udp%3A%2F%2Fexodus.desync.com%3A6969"],"infoHash":"2f5af312d2e1d7bc13e9a9e7c43f13321647923e","infoHashBuffer":{"type":"Buffer","data":[47,90,243,18,210,225,215,188,19,233,169,231,196,63,19,50,22,71,146,62]},"announce":[],"urlList":[]}}